<svg width="16" height="16" viewBox="0 0 16 16" fill="none" xmlns="http://www.w3.org/2000/svg">
<path d="M4.28002 11.82C2.79335 10.8467 1.83335 9.38002 1.83335 8.09335C1.83335 5.90669 4.59335 3.22668 8.00002 3.22668C9.39335 3.22668 10.6867 3.67335 11.7267 4.36668" stroke="#C6CEDD" stroke-width="1.2" stroke-linecap="round" stroke-linejoin="round"/>
<path d="M13.2332 5.74036C13.8272 6.49369 14.1732 7.32702 14.1732 8.09369C14.1732 10.2804 11.4065 12.9604 7.99987 12.9604C7.3932 12.9604 6.80054 12.8737 6.24654 12.7204" stroke="#C6CEDD" stroke-width="1.2" stroke-linecap="round" stroke-linejoin="round"/>
<path d="M6.51048 9.57824C6.11381 9.18557 5.89181 8.65024 5.89381 8.09224C5.89115 6.92891 6.83248 5.98357 7.99648 5.98157C8.55648 5.98024 9.09381 6.20224 9.48981 6.59824" stroke="#C6CEDD" stroke-width="1.2" stroke-linecap="round" stroke-linejoin="round"/>
<path d="M10.073 8.46631C9.91702 9.32764 9.24302 10.003 8.38169 10.161" stroke="#C6CEDD" stroke-width="1.2" stroke-linecap="round" stroke-linejoin="round"/>
<path d="M13.2612 2.8335L2.74517 13.3495" stroke="#C6CEDD" stroke-width="1.2" stroke-linecap="round" stroke-linejoin="round"/>
</svg>
