<svg width="49" height="48" viewBox="0 0 49 48" fill="none" xmlns="http://www.w3.org/2000/svg">
<path fill-rule="evenodd" clip-rule="evenodd" d="M34.5877 25.0886C31.8887 26.1708 28.9752 26.8383 25.928 27.0112C25.4025 27.041 24.873 27.0562 24.3399 27.0562C23.8068 27.0562 23.2773 27.041 22.7518 27.0112C19.7038 26.8382 16.7898 26.1705 14.0901 25.0878C8.42479 22.8158 3.70405 18.7165 0.673218 13.5281C5.39729 5.44098 14.2269 0 24.3399 0C34.4528 0 43.2825 5.44098 48.0066 13.5281C44.9754 18.7171 40.2539 22.8167 34.5877 25.0886Z" fill="white"/>
<path d="M14.0897 27.1939C13.4371 26.9321 12.7969 26.6462 12.1705 26.337C10.1346 27.7573 8.41346 29.5261 7.11749 31.5442C9.3203 34.9745 12.7513 37.6846 16.8689 39.1867C18.831 39.9025 20.949 40.344 23.1642 40.4583H25.4727C27.6874 40.344 31.5801 42.5168 25.9276 47.9999C30.0458 46.4979 39.3164 34.9749 41.5194 31.5442C40.2271 29.5319 38.5121 27.7674 36.4838 26.3492C35.8646 26.6539 35.2321 26.9361 34.5873 27.1947C31.8882 28.2769 28.9748 28.9443 25.9276 29.1173C25.402 29.1471 24.8725 29.1622 24.3395 29.1622C23.8064 29.1622 23.2769 29.1471 22.7514 29.1173C19.7034 28.9443 16.7893 28.2765 14.0897 27.1939Z" fill="white"/>
<rect x="12.9277" y="10.0674" width="22.8741" height="8.08988" rx="4.04494" fill="#162550"/>
<ellipse cx="30.6727" cy="14.0675" rx="1.49771" ry="1.48315" fill="#04FED1"/>
<ellipse cx="24.3184" cy="34.0225" rx="1.49771" ry="1.48315" fill="#162550"/>
<ellipse cx="18.3286" cy="14.0675" rx="1.49771" ry="1.48315" fill="#04FED1"/>
<ellipse cx="18.3286" cy="34.0225" rx="1.49771" ry="1.48315" fill="#162550"/>
<ellipse cx="30.3101" cy="34.0225" rx="1.49771" ry="1.48315" fill="#162550"/>
</svg>
