<svg width="37" height="37" viewBox="0 0 37 37" fill="none" xmlns="http://www.w3.org/2000/svg">
<path d="M22.6686 5.30641C22.9631 5.65483 23.125 6.09575 23.125 6.55208V30.451C23.1251 30.8186 23.02 31.1786 22.8221 31.4885C22.6243 31.7983 22.3419 32.0451 22.0084 32.1997C21.6748 32.3544 21.304 32.4103 20.9397 32.3611C20.5754 32.3118 20.2327 32.1594 19.9522 31.9217L12.2948 25.4375H6.55206C5.63209 25.4375 4.7498 25.072 4.09929 24.4215C3.44877 23.771 3.08331 22.8887 3.08331 21.9687V15.0312C3.08331 14.1113 3.44877 13.229 4.09929 12.5785C4.7498 11.928 5.63209 11.5625 6.55206 11.5625H12.2948L19.9538 5.08133C20.3439 4.75154 20.849 4.59016 21.3581 4.63266C21.8672 4.67516 22.3386 4.91805 22.6686 5.30795V5.30641ZM20.8125 7.38458L13.1427 13.875H6.55206C6.24541 13.875 5.95131 13.9968 5.73447 14.2137C5.51763 14.4305 5.39581 14.7246 5.39581 15.0312V21.9687C5.39581 22.6085 5.91381 23.125 6.55206 23.125H13.1427L20.8125 29.62V7.38458ZM26.3686 13.3215C26.6304 13.1623 26.9446 13.1134 27.2423 13.1857C27.5401 13.258 27.797 13.4454 27.9566 13.707C28.8415 15.1561 29.2855 16.778 29.2855 18.5478C29.2855 20.3192 28.8415 21.941 27.9566 23.3902C27.8797 23.5241 27.7768 23.6414 27.6538 23.7349C27.5309 23.8285 27.3905 23.8964 27.2409 23.9348C27.0912 23.9732 26.9354 23.9812 26.7827 23.9583C26.6299 23.9355 26.4833 23.8823 26.3514 23.8018C26.2195 23.7213 26.1051 23.6153 26.0149 23.4899C25.9248 23.3645 25.8606 23.2223 25.8263 23.0717C25.792 22.9211 25.7882 22.7651 25.8151 22.613C25.8421 22.4609 25.8992 22.3158 25.9832 22.1861C26.6431 21.1039 26.973 19.8998 26.973 18.5478C26.973 17.1973 26.6431 15.9932 25.9832 14.911C25.824 14.6493 25.7751 14.335 25.8474 14.0373C25.9197 13.7396 26.1071 13.4827 26.3686 13.3231V13.3215Z" fill="#003366"/>
</svg>
